<svg id="Layer_1" data-name="Layer 1" xmlns="http://www.w3.org/2000/svg" viewBox="0 0 1532.61 1041.71"><defs><style>.cls-1{fill:blue;}.cls-1,.cls-2,.cls-3{stroke:#000;stroke-miterlimit:10;}.cls-2{fill:red;}.cls-3{fill:#c1272d;}</style></defs><title>Untitled-1</title><path class="cls-1" d="M267.5,152.5c104.28,40.25,209.5,98.29,215,176,6.56,92.63-132.69,155.16-115,200,29.7,75.31,436.15-66.45,497,39,46.48,80.54-159,218.06-115,311,51.06,107.75,413.77,105.46,619-83,47-43.13,116.84-107.29,111-187-6.54-89.2-102.37-122.56-482-312C683.89,140,555.4,66,385.5,106.5A467.42,467.42,0,0,0,267.5,152.5Z" transform="translate(-86.65 -34.76)"/><path class="cls-2" d="M162.5,818.5c-2.33,86.66,275.32,172.81,510,210,348.62,55.24,580.84,92,757-65,188-167.59,251.58-501.94,119-691-149.75-213.56-434.06-284-615-207-164.45,70-139,215.36-322,310-234.76,121.42-512.25,4-524,49-11.52,44.1,265,119.77,260,223C343.49,729.81,164.36,749.28,162.5,818.5Z" transform="translate(-86.65 -34.76)"/><path class="cls-3" d="M857.5,627.5c-78.37-94.55,77.17-461.83,269-459,97.45,1.44,205.43,98.41,212,203,10,160-223,245.84-246,254C1066.38,634.75,909.55,690.29,857.5,627.5Z" transform="translate(-86.65 -34.76)"/><path class="cls-2" d="M1019.5,488.5c-36-58,18-171.57,88-174,44.44-1.54,96.06,41.63,100,98,4.58,65.41-57.33,115.55-114,114C1090.54,526.42,1041.75,524.37,1019.5,488.5Z" transform="translate(-86.65 -34.76)"/></svg>